# xmcd
#
# Track frame offsets:
#	150
#	17112
#	36384
#	52082
#	68924
#	83893
#	97339
#	109896
#	122634
#	139448
#	154376
#
# Disc length: 2302 seconds
#
# Revision: 0
# Processed by: cddbd v1.5.2PL0 Copyright (c) Steve Scherf et al.
# Submitted via: dBpowerAMP V4.0
#
DISCID=a708fc0b
DTITLE=Buddy Whittington - Six String Svengali
DYEAR=2011
DGENRE=Blues
TTITLE0=Back When The Beano Was Boss
TTITLE1=Deadwood And Wire
TTITLE2=My World Revolves Around You
TTITLE3=Ain't Got The Scratch
TTITLE4=I Had To Go See Alice
TTITLE5=Fender Champ
TTITLE6=Six String Romance
TTITLE7=Texas Trios
TTITLE8=The Put On Song
TTITLE9=For Crystal Beach
TTITLE10=While We're Here
EXTD=Buddy Whittington - Six String Svengali
EXTT0=
EXTT1=
EXTT2=
EXTT3=
EXTT4=
EXTT5=
EXTT6=
EXTT7=
EXTT8=
EXTT9=
EXTT10=
PLAYORDER=
